<svg width="16" height="16" viewBox="0 0 16 16" fill="none" xmlns="http://www.w3.org/2000/svg">
<path d="M9.6 14V12.375H11.25C11.4058 12.375 11.5365 12.2971 11.6419 12.1414C11.7473 11.9857 11.8 11.7927 11.8 11.5625V9.9375C11.8 9.42292 11.9008 8.95573 12.1025 8.53594C12.3042 8.11615 12.57 7.81823 12.9 7.64219V7.35781C12.57 7.18177 12.3042 6.88385 12.1025 6.46406C11.9008 6.04427 11.8 5.57708 11.8 5.0625V3.4375C11.8 3.20729 11.7473 3.01432 11.6419 2.85859C11.5365 2.70286 11.4058 2.625 11.25 2.625H9.6V1H11.25C11.7083 1 12.0979 1.23698 12.4188 1.71094C12.7396 2.1849 12.9 2.76042 12.9 3.4375V5.0625C12.9 5.29271 12.9527 5.48568 13.0581 5.64141C13.1635 5.79714 13.2942 5.875 13.45 5.875H14V9.125H13.45C13.2942 9.125 13.1635 9.20286 13.0581 9.35859C12.9527 9.51432 12.9 9.70729 12.9 9.9375V11.5625C12.9 12.2396 12.7396 12.8151 12.4188 13.2891C12.0979 13.763 11.7083 14 11.25 14H9.6ZM5.75 14C5.29167 14 4.90208 13.763 4.58125 13.2891C4.26042 12.8151 4.1 12.2396 4.1 11.5625V9.9375C4.1 9.70729 4.04729 9.51432 3.94188 9.35859C3.83646 9.20286 3.70583 9.125 3.55 9.125H3V5.875H3.55C3.70583 5.875 3.83646 5.79714 3.94188 5.64141C4.04729 5.48568 4.1 5.29271 4.1 5.0625V3.4375C4.1 2.76042 4.26042 2.1849 4.58125 1.71094C4.90208 1.23698 5.29167 1 5.75 1H7.4V2.625H5.75C5.59417 2.625 5.46354 2.70286 5.35813 2.85859C5.25271 3.01432 5.2 3.20729 5.2 3.4375V5.0625C5.2 5.57708 5.09917 6.04427 4.8975 6.46406C4.69583 6.88385 4.43 7.18177 4.1 7.35781V7.64219C4.43 7.81823 4.69583 8.11615 4.8975 8.53594C5.09917 8.95573 5.2 9.42292 5.2 9.9375V11.5625C5.2 11.7927 5.25271 11.9857 5.35813 12.1414C5.46354 12.2971 5.59417 12.375 5.75 12.375H7.4V14H5.75Z" fill="#F9A825"/>
</svg>
