<svg width="16" height="16" viewBox="0 0 16 16" fill="none" xmlns="http://www.w3.org/2000/svg">
<path d="M8 14.5C9.72391 14.5 11.3772 13.8152 12.5962 12.5962C13.8152 11.3772 14.5 9.72391 14.5 8C14.5 6.27609 13.8152 4.62279 12.5962 3.40381C11.3772 2.18482 9.72391 1.5 8 1.5C6.27609 1.5 4.62279 2.18482 3.40381 3.40381C2.18482 4.62279 1.5 6.27609 1.5 8C1.5 9.72391 2.18482 11.3772 3.40381 12.5962C4.62279 13.8152 6.27609 14.5 8 14.5Z" stroke="#32A3D7" stroke-linecap="round" stroke-linejoin="round"/>
<path d="M7 7.5H9V12.5H7V7.5ZM9 4.5C9 4.76522 8.89464 5.01957 8.70711 5.20711C8.51957 5.39464 8.26522 5.5 8 5.5C7.73478 5.5 7.48043 5.39464 7.29289 5.20711C7.10536 5.01957 7 4.76522 7 4.5C7 4.23478 7.10536 3.98043 7.29289 3.79289C7.48043 3.60536 7.73478 3.5 8 3.5C8.26522 3.5 8.51957 3.60536 8.70711 3.79289C8.89464 3.98043 9 4.23478 9 4.5Z" stroke="#32A3D7" stroke-linecap="round" stroke-linejoin="round"/>
</svg>
