<svg width="16" height="16" viewBox="0 0 16 16" fill="none" xmlns="http://www.w3.org/2000/svg">
<path d="M8 6C11.722 6 14 7.295 14 8C14 8.705 11.722 10 8 10C4.278 10 2 8.705 2 8C2 7.295 4.278 6 8 6ZM8 5C4.134 5 1 6.343 1 8C1 9.657 4.134 11 8 11C11.866 11 15 9.657 15 8C15 6.343 11.866 5 8 5Z" fill="#0288D1"/>
<path d="M8 7C7.80222 7 7.60888 7.05865 7.44443 7.16853C7.27998 7.27841 7.15181 7.43459 7.07612 7.61732C7.00043 7.80004 6.98063 8.00111 7.01922 8.19509C7.0578 8.38907 7.15304 8.56725 7.29289 8.70711C7.43275 8.84696 7.61093 8.9422 7.80491 8.98079C7.99889 9.01937 8.19996 8.99957 8.38268 8.92388C8.56541 8.84819 8.72159 8.72002 8.83147 8.55557C8.94135 8.39112 9 8.19778 9 8C9 7.73478 8.89464 7.48043 8.70711 7.29289C8.51957 7.10536 8.26522 7 8 7Z" fill="#0288D1"/>
<path d="M5.22882 2.75C6.23732 2.75 8.19732 4.3385 9.73182 6.9965C11.5928 10.22 11.6103 12.84 10.9998 13.1925C10.9294 13.229 10.8506 13.2463 10.7713 13.2425C9.76282 13.2425 7.80232 11.6545 6.26782 8.9965C4.40682 5.773 4.38932 3.153 4.99982 2.8005C5.0704 2.7639 5.14941 2.74614 5.22882 2.75ZM5.22832 1.7505C4.9735 1.74589 4.72205 1.80923 4.49982 1.934C3.06482 2.7625 3.46882 6.1485 5.40182 9.4965C7.04382 12.3415 9.26182 14.243 10.7718 14.243C11.0266 14.2472 11.2778 14.1835 11.4998 14.0585C12.9348 13.2305 12.5308 9.8445 10.5978 6.4965C8.95582 3.6515 6.73782 1.75 5.22782 1.75L5.22832 1.7505Z" fill="#0288D1"/>
<path d="M10.7712 2.7502C10.8505 2.74644 10.9293 2.76369 10.9997 2.8002C11.6102 3.1532 11.5927 5.7732 9.73171 8.9967C8.19671 11.6547 6.23671 13.2432 5.22821 13.2432C5.14897 13.247 5.07014 13.2297 4.99971 13.1932C4.38921 12.8397 4.40671 10.2197 6.26771 6.9967C7.80271 4.3387 9.76271 2.7502 10.7712 2.7502ZM10.7712 1.7502C9.26121 1.7502 7.04371 3.6522 5.40121 6.4967C3.46921 9.8447 3.06471 13.2307 4.49971 14.0587C4.72184 14.1838 4.9733 14.2475 5.22821 14.2432C6.73821 14.2432 8.95571 12.3412 10.5982 9.4967C12.5302 6.1487 12.9347 2.7627 11.4997 1.9347C11.2776 1.80958 11.0261 1.7459 10.7712 1.7502Z" fill="#0288D1"/>
</svg>
