<svg width="16" height="16" viewBox="0 0 16 16" fill="none" xmlns="http://www.w3.org/2000/svg">
<path d="M8.08556 9.35155C7.84506 9.46205 7.58156 9.60605 7.05406 9.89555C6.85406 10.008 6.64506 10.1206 6.45056 10.2266C6.43706 10.2131 6.42306 10.196 6.40956 10.182C5.36606 9.06705 3.43606 8.27955 3.51806 6.78205C3.54856 6.23655 3.73606 4.80455 7.22456 3.06555C10.0956 1.65055 12.3801 2.04255 12.7746 2.91205C13.3416 4.15155 11.5501 6.45805 8.58506 6.79255C8.25691 6.85907 7.918 6.85102 7.59338 6.76897C7.26875 6.68693 6.96671 6.533 6.70956 6.31855C6.55256 6.14805 6.52906 6.13805 6.47106 6.17205C6.37556 6.22205 6.43706 6.37655 6.47106 6.46505C6.58416 6.66982 6.73717 6.84984 6.92104 6.99446C7.10491 7.13909 7.31591 7.24538 7.54156 7.30705C8.70837 7.55925 9.92491 7.43875 11.0196 6.96255C12.8166 6.26705 14.2196 4.33355 13.8086 2.71255C13.3961 1.06905 10.6681 0.52705 8.08706 1.44405C6.4707 1.98875 4.97733 2.8462 3.69206 3.96755C2.27006 5.29755 2.04506 6.45355 2.13706 6.93755C2.46806 8.65605 4.83706 9.77455 5.78706 10.603C5.73773 10.6297 5.69456 10.6536 5.65756 10.6746C5.18356 10.9101 3.37656 11.8545 2.92606 12.8535C2.41456 13.9855 3.00806 14.797 3.40006 14.906C3.99081 15.0477 4.61105 15.0013 5.17411 14.7732C5.73717 14.5451 6.21491 14.1469 6.54056 13.634C6.8172 13.2089 6.98707 12.7232 7.03574 12.2183C7.0844 11.7134 7.01041 11.2042 6.82006 10.734C6.93232 10.6444 7.0521 10.5646 7.17806 10.4956C7.42006 10.3526 7.65056 10.2115 7.85506 10.1025C8.55539 9.77497 9.31942 9.60612 10.0926 9.60805C11.7156 9.79905 12.0361 10.8115 11.9746 11.238C11.9457 11.3893 11.8848 11.5327 11.796 11.6585C11.7072 11.7843 11.5925 11.8897 11.4596 11.9675C11.3471 12.039 11.3096 12.063 11.3196 12.114C11.3331 12.189 11.3876 12.1855 11.4831 12.172C11.7269 12.095 11.9417 11.946 12.0993 11.7445C12.2569 11.5431 12.3499 11.2988 12.3661 11.0435C12.4161 10.0435 11.4626 8.94655 9.77456 8.95655C9.26919 8.95802 8.76891 9.0577 8.30156 9.25005C8.22656 9.28105 8.15373 9.31438 8.08306 9.35005L8.08556 9.35155ZM5.67306 13.271C5.13406 13.8575 4.38406 14.0791 4.06006 13.8916C3.71006 13.6916 3.84856 12.824 4.51006 12.2035C4.90152 11.8502 5.32501 11.534 5.77506 11.259C5.85356 11.209 5.96956 11.143 6.10906 11.059L6.14656 11.0385L6.22856 10.9886C6.34644 11.3841 6.35712 11.8039 6.25952 12.2049C6.16191 12.606 5.95953 12.9739 5.67306 13.271Z" fill="#CD6799"/>
</svg>
