<svg width="16" height="16" viewBox="0 0 16 16" fill="none" xmlns="http://www.w3.org/2000/svg">
<path d="M2 8V14H14V2H2V8ZM11.6701 7.52C11.9575 7.5867 12.2187 7.73702 12.4208 7.952C12.532 8.06783 12.6287 8.19678 12.7088 8.336C12.7088 8.35136 12.1904 8.70176 11.8746 8.8976C11.863 8.90528 11.817 8.85536 11.7661 8.77952C11.7084 8.68003 11.6265 8.59677 11.528 8.53751C11.4294 8.47825 11.3175 8.44493 11.2026 8.44064C10.8387 8.41568 10.6045 8.60672 10.6064 8.92064C10.6035 8.99879 10.6214 9.07631 10.6582 9.14528C10.7379 9.31136 10.8867 9.41024 11.3533 9.61184C12.2125 9.98144 12.5802 10.2253 12.8086 10.5718C13.064 10.9558 13.1206 11.576 12.9478 12.0349C12.7558 12.5341 12.2854 12.873 11.6202 12.9853C11.3163 13.0201 11.0093 13.0169 10.7062 12.9757C10.2437 12.9006 9.81708 12.6804 9.488 12.3469C9.3776 12.225 9.16256 11.9072 9.176 11.8842C9.21098 11.858 9.24788 11.8346 9.2864 11.8141L9.728 11.5606L10.0726 11.361L10.1446 11.4675C10.2662 11.6413 10.4208 11.7894 10.5997 11.9034C10.9837 12.105 11.5078 12.0771 11.767 11.8438C11.8541 11.7584 11.9084 11.6451 11.9205 11.5237C11.9326 11.4023 11.9017 11.2805 11.8333 11.1795C11.7373 11.0461 11.5453 10.9338 11.0086 10.6995C10.3894 10.4326 10.1226 10.2675 9.87872 10.0045C9.72655 9.83087 9.61416 9.62609 9.54944 9.40448C9.5012 9.15127 9.49407 8.89195 9.52832 8.63648C9.656 8.0384 10.1043 7.6208 10.759 7.49696C11.0623 7.4595 11.3694 7.46792 11.6701 7.52192V7.52ZM8.85344 8.02304V8.51456H7.29536V12.9526H6.1904V8.5136H4.62848V8.0336C4.62425 7.86836 4.62874 7.70301 4.64192 7.53824C4.64768 7.53056 5.60192 7.52672 6.75392 7.52864H8.84768L8.85344 8.02304Z" fill="#32A3D7"/>
</svg>
